<svg id="blob1" viewBox="0 0 1920 300" width="1920" height="300" xmlns="http://www.w3.org/2000/svg" xmlns:xlink="http://www.w3.org/1999/xlink" version="1.1"><rect x="0" y="0" width="1920" height="300" fill="#FFFFFF"></rect><path id="blobSVG1" d="M0 78L13.8 72C27.7 66 55.3 54 83.2 73C111 92 139 142 166.8 146.5C194.7 151 222.3 110 250.2 107.5C278 105 306 141 333.8 150.5C361.7 160 389.3 143 417.2 121.2C445 99.3 473 72.7 500.8 57.5C528.7 42.3 556.3 38.7 584.2 53.2C612 67.7 640 100.3 667.8 110.7C695.7 121 723.3 109 751.2 98.2C779 87.3 807 77.7 834.8 82.8C862.7 88 890.3 108 918.2 124.3C946 140.7 974 153.3 1001.8 151C1029.7 148.7 1057.3 131.3 1085.2 136C1113 140.7 1141 167.3 1168.8 181.2C1196.7 195 1224.3 196 1252.2 179.2C1280 162.3 1308 127.7 1335.8 127.8C1363.7 128 1391.3 163 1419.2 169.3C1447 175.7 1475 153.3 1502.8 139.8C1530.7 126.3 1558.3 121.7 1586.2 130.7C1614 139.7 1642 162.3 1669.8 162C1697.7 161.7 1725.3 138.3 1753.2 136.5C1781 134.7 1809 154.3 1836.8 166.7C1864.7 179 1892.3 184 1906.2 186.5L1920 189L1920 0L1906.2 0C1892.3 0 1864.7 0 1836.8 0C1809 0 1781 0 1753.2 0C1725.3 0 1697.7 0 1669.8 0C1642 0 1614 0 1586.2 0C1558.3 0 1530.7 0 1502.8 0C1475 0 1447 0 1419.2 0C1391.3 0 1363.7 0 1335.8 0C1308 0 1280 0 1252.2 0C1224.3 0 1196.7 0 1168.8 0C1141 0 1113 0 1085.2 0C1057.3 0 1029.7 0 1001.8 0C974 0 946 0 918.2 0C890.3 0 862.7 0 834.8 0C807 0 779 0 751.2 0C723.3 0 695.7 0 667.8 0C640 0 612 0 584.2 0C556.3 0 528.7 0 500.8 0C473 0 445 0 417.2 0C389.3 0 361.7 0 333.8 0C306 0 278 0 250.2 0C222.3 0 194.7 0 166.8 0C139 0 111 0 83.2 0C55.3 0 27.7 0 13.8 0L0 0Z" fill="#001122" stroke-linecap="round" stroke-linejoin="miter"></path></svg>