<svg id="blob4" viewBox="0 0 1512 500" width="1512" height="500" xmlns="http://www.w3.org/2000/svg" xmlns:xlink="http://www.w3.org/1999/xlink" version="1.1"><rect x="0" y="0" width="1512" height="500" fill="#FFFFFF"></rect><path d="M0 221L15.8 206.2C31.7 191.3 63.3 161.7 94.8 154.5C126.3 147.3 157.7 162.7 189.2 168.2C220.7 173.7 252.3 169.3 283.8 165.3C315.3 161.3 346.7 157.7 378.2 151.3C409.7 145 441.3 136 472.8 132.3C504.3 128.7 535.7 130.3 567.2 141.8C598.7 153.3 630.3 174.7 661.8 174.7C693.3 174.7 724.7 153.3 756.2 155.5C787.7 157.7 819.3 183.3 850.8 197C882.3 210.7 913.7 212.3 945.2 213.2C976.7 214 1008.3 214 1039.8 209C1071.3 204 1102.7 194 1134.2 185.2C1165.7 176.3 1197.3 168.7 1228.8 172.3C1260.3 176 1291.7 191 1323.2 191.8C1354.7 192.7 1386.3 179.3 1417.8 175.8C1449.3 172.3 1480.7 178.7 1496.3 181.8L1512 185L1512 0L1496.3 0C1480.7 0 1449.3 0 1417.8 0C1386.3 0 1354.7 0 1323.2 0C1291.7 0 1260.3 0 1228.8 0C1197.3 0 1165.7 0 1134.2 0C1102.7 0 1071.3 0 1039.8 0C1008.3 0 976.7 0 945.2 0C913.7 0 882.3 0 850.8 0C819.3 0 787.7 0 756.2 0C724.7 0 693.3 0 661.8 0C630.3 0 598.7 0 567.2 0C535.7 0 504.3 0 472.8 0C441.3 0 409.7 0 378.2 0C346.7 0 315.3 0 283.8 0C252.3 0 220.7 0 189.2 0C157.7 0 126.3 0 94.8 0C63.3 0 31.7 0 15.8 0L0 0Z" fill="#001122" stroke-linecap="round" stroke-linejoin="miter"></path></svg>