<svg id="blob2" viewBox="0 0 1920 300" width="1920" height="300" xmlns="http://www.w3.org/2000/svg" xmlns:xlink="http://www.w3.org/1999/xlink" version="1.1"><rect x="0" y="0" width="1920" height="300" fill="#FFFFFF"></rect><path id="blobSVG2" d="M0 119L13.8 113C27.7 107 55.3 95 83.2 91.3C111 87.7 139 92.3 166.8 96.7C194.7 101 222.3 105 250.2 113.2C278 121.3 306 133.7 333.8 124.2C361.7 114.7 389.3 83.3 417.2 84.2C445 85 473 118 500.8 120.8C528.7 123.7 556.3 96.3 584.2 80.2C612 64 640 59 667.8 63.5C695.7 68 723.3 82 751.2 79.7C779 77.3 807 58.7 834.8 63.5C862.7 68.3 890.3 96.7 918.2 119.8C946 143 974 161 1001.8 162.2C1029.7 163.3 1057.3 147.7 1085.2 141.5C1113 135.3 1141 138.7 1168.8 150.5C1196.7 162.3 1224.3 182.7 1252.2 188.2C1280 193.7 1308 184.3 1335.8 163.2C1363.7 142 1391.3 109 1419.2 111.7C1447 114.3 1475 152.7 1502.8 166.5C1530.7 180.3 1558.3 169.7 1586.2 150.3C1614 131 1642 103 1669.8 101.2C1697.7 99.3 1725.3 123.7 1753.2 118.8C1781 114 1809 80 1836.8 75C1864.7 70 1892.3 94 1906.2 106L1920 118L1920 0L1906.2 0C1892.3 0 1864.7 0 1836.8 0C1809 0 1781 0 1753.2 0C1725.3 0 1697.7 0 1669.8 0C1642 0 1614 0 1586.2 0C1558.3 0 1530.7 0 1502.8 0C1475 0 1447 0 1419.2 0C1391.3 0 1363.7 0 1335.8 0C1308 0 1280 0 1252.2 0C1224.3 0 1196.7 0 1168.8 0C1141 0 1113 0 1085.2 0C1057.3 0 1029.7 0 1001.8 0C974 0 946 0 918.2 0C890.3 0 862.7 0 834.8 0C807 0 779 0 751.2 0C723.3 0 695.7 0 667.8 0C640 0 612 0 584.2 0C556.3 0 528.7 0 500.8 0C473 0 445 0 417.2 0C389.3 0 361.7 0 333.8 0C306 0 278 0 250.2 0C222.3 0 194.7 0 166.8 0C139 0 111 0 83.2 0C55.3 0 27.7 0 13.8 0L0 0Z" fill="#001122" stroke-linecap="round" stroke-linejoin="miter"></path></svg>