<svg id="blob3" viewBox="0 0 1512 500" width="1512" height="500" xmlns="http://www.w3.org/2000/svg" xmlns:xlink="http://www.w3.org/1999/xlink" version="1.1"><rect x="0" y="0" width="1512" height="500" fill="#FFFFFF"></rect><path d="M0 151L15.8 150.5C31.7 150 63.3 149 94.8 154C126.3 159 157.7 170 189.2 172.2C220.7 174.3 252.3 167.7 283.8 162.2C315.3 156.7 346.7 152.3 378.2 160.5C409.7 168.7 441.3 189.3 472.8 198C504.3 206.7 535.7 203.3 567.2 192.2C598.7 181 630.3 162 661.8 152.8C693.3 143.7 724.7 144.3 756.2 142.8C787.7 141.3 819.3 137.7 850.8 150.3C882.3 163 913.7 192 945.2 195.3C976.7 198.7 1008.3 176.3 1039.8 166.8C1071.3 157.3 1102.7 160.7 1134.2 163C1165.7 165.3 1197.3 166.7 1228.8 172.5C1260.3 178.3 1291.7 188.7 1323.2 190.3C1354.7 192 1386.3 185 1417.8 179.5C1449.3 174 1480.7 170 1496.3 168L1512 166L1512 0L1496.3 0C1480.7 0 1449.3 0 1417.8 0C1386.3 0 1354.7 0 1323.2 0C1291.7 0 1260.3 0 1228.8 0C1197.3 0 1165.7 0 1134.2 0C1102.7 0 1071.3 0 1039.8 0C1008.3 0 976.7 0 945.2 0C913.7 0 882.3 0 850.8 0C819.3 0 787.7 0 756.2 0C724.7 0 693.3 0 661.8 0C630.3 0 598.7 0 567.2 0C535.7 0 504.3 0 472.8 0C441.3 0 409.7 0 378.2 0C346.7 0 315.3 0 283.8 0C252.3 0 220.7 0 189.2 0C157.7 0 126.3 0 94.8 0C63.3 0 31.7 0 15.8 0L0 0Z" fill="#001122" stroke-linecap="round" stroke-linejoin="miter"></path></svg>