<svg id="wave2" viewBox="0 0 1920 200" width="1920" height="200" xmlns="http://www.w3.org/2000/svg" xmlns:xlink="http://www.w3.org/1999/xlink" version="1.1"><rect x="0" y="0" width="1920" height="200" fill="#FFFFFF"></rect><path id="wave_path2" d="M0 60L22.8 59.3C45.7 58.7 91.3 57.3 137 56.5C182.7 55.7 228.3 55.3 274 50.3C319.7 45.3 365.3 35.7 411.2 31.8C457 28 503 30 548.8 34.7C594.7 39.3 640.3 46.7 686 52.7C731.7 58.7 777.3 63.3 823 60.5C868.7 57.7 914.3 47.3 960 51C1005.7 54.7 1051.3 72.3 1097 75.3C1142.7 78.3 1188.3 66.7 1234 54.8C1279.7 43 1325.3 31 1371.2 31.8C1417 32.7 1463 46.3 1508.8 48.3C1554.7 50.3 1600.3 40.7 1646 43.8C1691.7 47 1737.3 63 1783 73.3C1828.7 83.7 1874.3 88.3 1897.2 90.7L1920 93L1920 0L1897.2 0C1874.3 0 1828.7 0 1783 0C1737.3 0 1691.7 0 1646 0C1600.3 0 1554.7 0 1508.8 0C1463 0 1417 0 1371.2 0C1325.3 0 1279.7 0 1234 0C1188.3 0 1142.7 0 1097 0C1051.3 0 1005.7 0 960 0C914.3 0 868.7 0 823 0C777.3 0 731.7 0 686 0C640.3 0 594.7 0 548.8 0C503 0 457 0 411.2 0C365.3 0 319.7 0 274 0C228.3 0 182.7 0 137 0C91.3 0 45.7 0 22.8 0L0 0Z" fill="#001122" stroke-linecap="round" stroke-linejoin="miter"></path></svg>