<svg id="visual" viewBox="0 0 1920 200" width="1920" height="200" xmlns="http://www.w3.org/2000/svg" xmlns:xlink="http://www.w3.org/1999/xlink" version="1.1"><rect x="0" y="0" width="1920" height="200" fill="#FFFFFF"></rect><path d="M0 49L22.8 45C45.7 41 91.3 33 137 38.8C182.7 44.7 228.3 64.3 274 74.3C319.7 84.3 365.3 84.7 411.2 76.7C457 68.7 503 52.3 548.8 50.2C594.7 48 640.3 60 686 65.2C731.7 70.3 777.3 68.7 823 69.2C868.7 69.7 914.3 72.3 960 66.3C1005.7 60.3 1051.3 45.7 1097 48.3C1142.7 51 1188.3 71 1234 69.2C1279.7 67.3 1325.3 43.7 1371.2 42.8C1417 42 1463 64 1508.8 75.7C1554.7 87.3 1600.3 88.7 1646 88C1691.7 87.3 1737.3 84.7 1783 73.5C1828.7 62.3 1874.3 42.7 1897.2 32.8L1920 23L1920 0L1897.2 0C1874.3 0 1828.7 0 1783 0C1737.3 0 1691.7 0 1646 0C1600.3 0 1554.7 0 1508.8 0C1463 0 1417 0 1371.2 0C1325.3 0 1279.7 0 1234 0C1188.3 0 1142.7 0 1097 0C1051.3 0 1005.7 0 960 0C914.3 0 868.7 0 823 0C777.3 0 731.7 0 686 0C640.3 0 594.7 0 548.8 0C503 0 457 0 411.2 0C365.3 0 319.7 0 274 0C228.3 0 182.7 0 137 0C91.3 0 45.7 0 22.8 0L0 0Z" fill="#001122" stroke-linecap="round" stroke-linejoin="miter"></path></svg>