<svg id="visual" viewBox="0 0 1920 200" width="1920" height="200" xmlns="http://www.w3.org/2000/svg" xmlns:xlink="http://www.w3.org/1999/xlink" version="1.1"><rect x="0" y="0" width="1920" height="200" fill="#FFFFFF"></rect><path d="M0 20L22.8 20.8C45.7 21.7 91.3 23.3 137 24.8C182.7 26.3 228.3 27.7 274 38.8C319.7 50 365.3 71 411.2 77.8C457 84.7 503 77.3 548.8 78.8C594.7 80.3 640.3 90.7 686 82.7C731.7 74.7 777.3 48.3 823 43.8C868.7 39.3 914.3 56.7 960 61.2C1005.7 65.7 1051.3 57.3 1097 52.3C1142.7 47.3 1188.3 45.7 1234 41.2C1279.7 36.7 1325.3 29.3 1371.2 36.8C1417 44.3 1463 66.7 1508.8 69.5C1554.7 72.3 1600.3 55.7 1646 46.3C1691.7 37 1737.3 35 1783 40.5C1828.7 46 1874.3 59 1897.2 65.5L1920 72L1920 0L1897.2 0C1874.3 0 1828.7 0 1783 0C1737.3 0 1691.7 0 1646 0C1600.3 0 1554.7 0 1508.8 0C1463 0 1417 0 1371.2 0C1325.3 0 1279.7 0 1234 0C1188.3 0 1142.7 0 1097 0C1051.3 0 1005.7 0 960 0C914.3 0 868.7 0 823 0C777.3 0 731.7 0 686 0C640.3 0 594.7 0 548.8 0C503 0 457 0 411.2 0C365.3 0 319.7 0 274 0C228.3 0 182.7 0 137 0C91.3 0 45.7 0 22.8 0L0 0Z" fill="#001122" stroke-linecap="round" stroke-linejoin="miter"></path></svg>