<svg id="wave1" viewBox="0 0 1920 200" width="1920" height="200" xmlns="http://www.w3.org/2000/svg" xmlns:xlink="http://www.w3.org/1999/xlink" version="1.1"><rect x="0" y="0" width="1920" height="200" fill="#FFFFFF"></rect><path id="wave_path1" d="M0 35L22.8 43.3C45.7 51.7 91.3 68.3 137 76.2C182.7 84 228.3 83 274 73.3C319.7 63.7 365.3 45.3 411.2 43.5C457 41.7 503 56.3 548.8 55.5C594.7 54.7 640.3 38.3 686 30.2C731.7 22 777.3 22 823 26.5C868.7 31 914.3 40 960 46.7C1005.7 53.3 1051.3 57.7 1097 53.2C1142.7 48.7 1188.3 35.3 1234 28C1279.7 20.7 1325.3 19.3 1371.2 28C1417 36.7 1463 55.3 1508.8 66.3C1554.7 77.3 1600.3 80.7 1646 79.8C1691.7 79 1737.3 74 1783 73.2C1828.7 72.3 1874.3 75.7 1897.2 77.3L1920 79L1920 0L1897.2 0C1874.3 0 1828.7 0 1783 0C1737.3 0 1691.7 0 1646 0C1600.3 0 1554.7 0 1508.8 0C1463 0 1417 0 1371.2 0C1325.3 0 1279.7 0 1234 0C1188.3 0 1142.7 0 1097 0C1051.3 0 1005.7 0 960 0C914.3 0 868.7 0 823 0C777.3 0 731.7 0 686 0C640.3 0 594.7 0 548.8 0C503 0 457 0 411.2 0C365.3 0 319.7 0 274 0C228.3 0 182.7 0 137 0C91.3 0 45.7 0 22.8 0L0 0Z" fill="#001122" stroke-linecap="round" stroke-linejoin="miter"></path></svg>