<svg id="visual" viewBox="0 0 1920 200" width="1920" height="200" xmlns="http://www.w3.org/2000/svg" xmlns:xlink="http://www.w3.org/1999/xlink" version="1.1"><rect x="0" y="0" width="1920" height="200" fill="#FFFFFF"></rect><path d="M0 35L22.8 45.5C45.7 56 91.3 77 137 83.2C182.7 89.3 228.3 80.7 274 75.5C319.7 70.3 365.3 68.7 411.2 69C457 69.3 503 71.7 548.8 66.8C594.7 62 640.3 50 686 43.5C731.7 37 777.3 36 823 39.2C868.7 42.3 914.3 49.7 960 47C1005.7 44.3 1051.3 31.7 1097 34.8C1142.7 38 1188.3 57 1234 57.5C1279.7 58 1325.3 40 1371.2 41C1417 42 1463 62 1508.8 62C1554.7 62 1600.3 42 1646 35.3C1691.7 28.7 1737.3 35.3 1783 47.2C1828.7 59 1874.3 76 1897.2 84.5L1920 93L1920 0L1897.2 0C1874.3 0 1828.7 0 1783 0C1737.3 0 1691.7 0 1646 0C1600.3 0 1554.7 0 1508.8 0C1463 0 1417 0 1371.2 0C1325.3 0 1279.7 0 1234 0C1188.3 0 1142.7 0 1097 0C1051.3 0 1005.7 0 960 0C914.3 0 868.7 0 823 0C777.3 0 731.7 0 686 0C640.3 0 594.7 0 548.8 0C503 0 457 0 411.2 0C365.3 0 319.7 0 274 0C228.3 0 182.7 0 137 0C91.3 0 45.7 0 22.8 0L0 0Z" fill="#001122" stroke-linecap="round" stroke-linejoin="miter"></path></svg>